<svg width="512" height="512" viewBox="0 0 512 512" fill="none" xmlns="http://www.w3.org/2000/svg">
<g clip-path="url(#clip0_60455_388)">
<path d="M108.733 279.175V248.724C198.786 236.359 289.6 230.371 380.497 230.804C380.497 238.888 380.497 247.107 379.688 255.326C405.525 243.86 432.678 235.624 460.531 230.804C442.779 184.886 410.432 146.071 368.466 120.332C326.5 94.5922 277.24 83.3536 228.263 88.3447C179.286 93.3358 133.306 114.28 97.3949 147.956C61.4838 181.631 37.6316 226.173 29.5074 274.728L108.733 279.175Z" fill="#FDC305"/>
<path d="M393.971 326.467C378.341 343.714 375.242 342.636 375.242 372.952C375.242 385.213 375.242 438.973 375.242 496.64C406.131 476.241 431.489 448.51 449.051 415.925C466.613 383.339 475.834 346.912 475.891 309.895C475.713 295.871 474.27 281.891 471.579 268.126C443.664 284.692 417.64 304.255 393.971 326.467Z" fill="#FDC305"/>
<path d="M112.64 346.543C112.64 346.543 61.5748 327.141 42.7116 321.886C37.5521 320.26 32.2843 318.999 26.9474 318.114C28.4079 356.998 39.9574 394.834 60.4617 427.906C80.9659 460.977 109.72 488.146 143.899 506.745L112.64 346.543Z" fill="#FDC305"/>
<path d="M381.17 230.669C381.718 156.276 375.404 81.9912 362.307 8.75789C362.307 8.75789 360.421 -8.62316 350.316 5.52421C342.379 22.3412 336.932 40.2242 334.147 58.6105C276.774 54.9156 219.184 56.449 162.088 63.1916C151.444 26.9474 132.716 10.1053 123.688 13.4737C114.661 16.8421 113.987 58.0716 113.987 58.0716L109.541 248.051C199.562 235.871 290.331 230.062 381.17 230.669Z" fill="#F06351"/>
<path d="M194.156 188.632C194.156 187.419 207.63 197.794 213.154 201.027C218.678 204.261 221.373 206.686 221.373 208.977C221.373 211.267 217.735 213.558 212.884 213.558C208.034 213.558 200.623 211.941 199.411 209.92H212.076H215.983C207.774 203.848 200.431 196.686 194.156 188.632V188.632Z" fill="black"/>
<path d="M294.939 190.114L280.253 208.034C280.253 208.842 277.962 212.749 282.678 212.076C288.258 211.244 293.758 209.937 299.116 208.168C300.598 208.168 300.059 205.608 297.634 205.878C295.208 206.147 288.337 206.552 284.16 207.36L295.478 190.383C295.478 190.383 296.421 188.632 294.939 190.114Z" fill="black"/>
<path d="M252.632 272.168C258.877 269.417 264.04 264.681 267.318 258.695C271.091 249.937 267.318 246.434 261.389 245.221C253.277 243.741 244.904 245.377 237.945 249.802C232.691 254.653 233.364 259.503 237.272 263.276C242.005 266.863 247.164 269.85 252.632 272.168V272.168Z" fill="black"/>
<path d="M247.242 289.011C245.732 292.089 243.626 294.837 241.044 297.095C237.207 300.182 232.49 301.974 227.571 302.215C220.481 302.78 213.431 300.718 207.764 296.421C205.1 294.815 202.692 292.816 200.623 290.493C199.269 288.999 197.617 287.805 195.773 286.989C195.773 286.989 205.878 342.232 230.4 350.989C254.922 359.747 259.234 340.884 260.042 335.764C260.852 320.473 257 305.297 248.994 292.244C248.724 288.067 248.589 290.762 247.242 289.011Z" fill="#F06351"/>
<path d="M225.145 304.371C218.884 303.491 212.869 301.34 207.47 298.05C202.071 294.76 197.403 290.4 193.752 285.238C193.572 285.062 193.43 284.853 193.333 284.621C193.236 284.39 193.185 284.141 193.185 283.891C193.185 283.64 193.236 283.391 193.333 283.16C193.43 282.928 193.572 282.719 193.752 282.543C193.927 282.364 194.137 282.222 194.368 282.124C194.6 282.027 194.848 281.977 195.099 281.977C195.35 281.977 195.598 282.027 195.83 282.124C196.061 282.222 196.271 282.364 196.446 282.543C203.247 291.897 213.463 298.191 224.876 300.059V300.059C229.345 299.723 233.668 298.325 237.488 295.981C241.308 293.638 244.513 290.417 246.838 286.585L248.724 284.025L250.072 286.855C250.072 286.855 255.057 297.095 263.545 297.634C272.034 298.173 277.693 292.109 285.238 280.387C285.414 280.208 285.623 280.066 285.855 279.969C286.086 279.871 286.334 279.821 286.585 279.821C286.836 279.821 287.085 279.871 287.316 279.969C287.547 280.066 287.757 280.208 287.933 280.387C288.368 280.665 288.68 281.1 288.806 281.601C288.931 282.102 288.86 282.632 288.606 283.082C279.983 296.556 271.495 302.484 263.276 301.945C260.15 301.491 257.168 300.333 254.554 298.559C251.94 296.786 249.762 294.442 248.185 291.705C245.535 295.404 242.09 298.461 238.103 300.653C234.116 302.844 229.688 304.115 225.145 304.371V304.371Z" fill="black"/>
<path d="M380.497 254.922C356.305 276.799 333.49 300.153 312.185 324.851C291.013 349.455 267.1 371.561 240.91 390.737C237.945 383.596 219.082 370.392 219.082 370.392C219.082 370.392 176.91 341.558 149.288 318.922C134.388 306.356 120.303 292.855 107.116 278.501L80.1685 277.019C119.11 333.683 176.104 375.479 241.853 395.587C253.44 393.701 285.912 370.526 310.164 351.663C338.713 327.166 365.46 300.644 390.198 272.303C396.968 264.368 402.18 255.225 405.558 245.356C390.737 250.611 380.497 254.922 380.497 254.922Z" fill="#F06351"/>
</g>
<defs>
<clipPath id="clip0_60455_388">
<rect width="448.943" height="506.745" fill="white" transform="translate(26.9474)"/>
</clipPath>
</defs>
</svg>
