<svg width="29" height="18" fill="none" xmlns="http://www.w3.org/2000/svg"><path d="M.091 2.49c0-.855.552-1.316 1.656-1.383l4.254.025c.285 0 .475.126.57.377.438 1.258.928 2.343 1.47 3.257.543.913 1.252 1.965 2.127 3.156.076.15.2.226.371.226a.356.356 0 0 0 .314-.176l.086-.277.029-4.35c0-.302-.081-.503-.243-.604-.162-.1-.462-.176-.9-.226-.342-.05-.513-.235-.513-.553 0-.067.01-.118.028-.151C9.74.72 10.882.176 12.766.176l1.599-.025c.723 0 1.322.16 1.798.478.476.318.714.821.714 1.509v5.708a.707.707 0 0 0 .37.126c.286 0 .534-.15.743-.453 2.093-2.581 3.226-4.308 3.397-5.18a.41.41 0 0 1 .057-.126c.133-.251.352-.47.657-.654.304-.184.57-.31.799-.377a.63.63 0 0 1 .257-.05h4.425l.285.025a1 1 0 0 1 .885.478c.076.1.128.21.157.327.029.117.047.234.057.352.01.117.014.184.014.201v.176c-.133.687-.47 1.42-1.013 2.2-.543.78-1.232 1.623-2.07 2.528-.837.905-1.36 1.5-1.57 1.785-.171.202-.257.386-.257.554 0 .134.076.285.229.452l4.168 4.627c.228.269.342.562.342.88 0 .386-.171.705-.514.956-.342.252-.752.394-1.227.428l-.486.025h-4.339c-.019 0-.057.004-.114.012a.988.988 0 0 1-.114.013c-.419 0-.809-.16-1.17-.478-.134-.134-1.028-1.123-2.684-2.967a1.457 1.457 0 0 0-.4-.327c-.075.268-.175.654-.3 1.157a83.81 83.81 0 0 1-.27 1.081l-.086.428c-.19.586-.59.938-1.199 1.056l-.4.025H12.71c-1.58 0-3.154-.637-4.725-1.911-1.57-1.274-2.983-2.922-4.239-4.942C2.49 8.253 1.32 5.902.235 3.22a1.804 1.804 0 0 1-.144-.73Zm17.157 6.513c-.4 0-.762-.096-1.085-.289-.324-.193-.485-.457-.485-.792V2.138c0-.335-.095-.574-.286-.717-.19-.142-.523-.214-.999-.214l-1.627.05c-.818 0-1.437.126-1.855.378.837.352 1.255.922 1.255 1.71V7.77c-.037.42-.228.767-.57 1.044a1.774 1.774 0 0 1-1.142.415c-.571 0-1.009-.244-1.313-.73-1.485-1.978-2.589-3.856-3.312-5.633l-.257-.654-3.796-.025c-.248 0-.386.013-.414.038-.029.025-.043.096-.043.214 0 .15.019.31.057.477l.6 1.409c1.598 3.638 3.335 6.505 5.21 8.6 1.874 2.096 3.715 3.144 5.523 3.144h2.854c.115 0 .2-.03.257-.088.058-.059.105-.172.143-.34l.057-.251.543-2.213c.152-.302.285-.503.4-.604.209-.184.456-.276.741-.276.457 0 .924.243 1.4.729l2.426 2.716c.152.218.314.327.485.327h4.71c.571 0 .857-.126.857-.377a.444.444 0 0 0-.086-.252l-4.14-4.552c-.323-.352-.485-.729-.485-1.131 0-.403.153-.788.457-1.157.248-.335.728-.893 1.442-1.673a38.176 38.176 0 0 0 1.87-2.187c.532-.68.884-1.295 1.056-1.849l.085-.327a.347.347 0 0 1-.028-.163.538.538 0 0 0-.029-.189h-4.482c-.285.1-.513.252-.685.453l-.17.478C21.91 4.3 20.663 6.086 18.646 8.5a2.11 2.11 0 0 1-1.4.503Z" fill="#666"/></svg>